# xmcd
#
# Track frame offsets: 
#        150
#        13333
#        24754
#        37778
#        50494
#        63504
#        75962
#        86316
#        99178
#        113942
#        126204
#        137913
#        150039
#        161725
#        172967
#        187034
#        196392
#        207698
#        219708
#        231590
#        243449
#        252803
#        265335
#        278582
#        289895
#
# Disc length: 4016 seconds
#
# Revision: 0
# Processed by: cddbd v1.5.2PL0 Copyright (c) Steve Scherf et al.
# Submitted via: ExactAudioCopy v0.99pb5
#
DISCID=5a0fae19
DTITLE=Flatt and Scruggs - Flatt and Scruggs and the Stanley Brothers
DYEAR=2010
DGENRE=Bluegrass
TTITLE0=Dim Lights, Thick Smoke
TTITLE1=Dear Old Dixie
TTITLE2=Reunion in Heaven
TTITLE3=Pray for the Boys
TTITLE4=I'll Go Steppin' Too
TTITLE5=I'd Rather Be Alone
TTITLE6=Foggy Mountain Chimes
TTITLE7=Someone Took My Place with You
TTITLE8=Mother Prays Loud in Her Sleep
TTITLE9=That Old Book of Mine
TTITLE10=Your Life Is Like a Flower
TTITLE11=Be Ready for Tomorrow May Never Come
TTITLE12=Till the End of the World Rolls Around
TTITLE13=You're Not a Drop in the Bucket
TTITLE14=Don't This Road Look Rough and Rocky
TTITLE15=Foggy Mountain Special
TTITLE16=You Can Feel It in Your Soul
TTITLE17=Old Fashioned Preacher
TTITLE18=Before I Met You
TTITLE19=I'm Gonna Sleep With One Eye Open
TTITLE20=Randy Lynn Rag
TTITLE21=On My Mind
TTITLE22=Blue Ridge Cabin Home
TTITLE23=Some Old Day
TTITLE24=It Won't Be Long
EXTD=
EXTT0=
EXTT1=
EXTT2=
EXTT3=
EXTT4=
EXTT5=
EXTT6=
EXTT7=
EXTT8=
EXTT9=
EXTT10=
EXTT11=
EXTT12=
EXTT13=
EXTT14=
EXTT15=
EXTT16=
EXTT17=
EXTT18=
EXTT19=
EXTT20=
EXTT21=
EXTT22=
EXTT23=
EXTT24=
PLAYORDER=
